# xmcd
#
# Track frame offsets:
#	150
#	12105
#	32083
#	59377
#	75882
#	94594
#	117451
#	133788
#	154436
#	182066
#	195744
#	218756
#
# Disc length: 3156 seconds
#
# Revision: 0
# Processed by: cddbd v1.5.2PL0 Copyright (c) Steve Scherf et al.
# Submitted via: dBpowerAMP V4.0
#
DISCID=9c0c520c
DTITLE=Kerry Grombacher - Ti Sings In The Hi-Line
DYEAR=2008
DGENRE=Western
TTITLE0=It Sings In the Hi-Line
TTITLE1=Never Come Again
TTITLE2=Almas Perdidas (Lost Souls)
TTITLE3=Wild West Mambo
TTITLE4=Moonrise, Hernandez NM
TTITLE5=Blue Pony (Dream of Leaving Havre)
TTITLE6=Crosses on the Side of the Road
TTITLE7=Bison Wind
TTITLE8=Valley of Shadows
TTITLE9=Cajun Cowboy
TTITLE10=Rock Springs
TTITLE11=The Edge of the World
EXTD=
EXTT0=
EXTT1=
EXTT2=
EXTT3=
EXTT4=
EXTT5=
EXTT6=
EXTT7=
EXTT8=
EXTT9=
EXTT10=
EXTT11=
PLAYORDER=
